<svg xmlns="http://www.w3.org/2000/svg" width="600" height="740" viewBox="0 0 600 740" role="img" aria-labelledby="t"><title id="t">Ziad Elmaghraby. Behind the request. Software Engineer, Backend .NET.</title><style>
text{font-family:Arial,Helvetica,sans-serif} .mono{font-family:Consolas,'Courier New',monospace}
.muted{fill:#8795aa} .white{fill:#f3f4ea} .lime{fill:#d2ff5a}
@keyframes drift{from{stroke-dashoffset:0}to{stroke-dashoffset:-96}}
@keyframes pulse{0%,100%{opacity:.35}50%{opacity:1}}
.flow{stroke-dasharray:7 17;animation:drift 6s linear infinite}
.pulse{animation:pulse 3s ease-in-out infinite}
@media(prefers-reduced-motion:reduce){.flow,.pulse{animation:none}}
</style><defs><pattern id="grid" width="40" height="40" patternUnits="userSpaceOnUse"><path d="M40 0H0V40" fill="none" stroke="#243047" stroke-width=".7"/></pattern></defs><rect x="1" y="1" width="598" height="738" rx="20" fill="#0d1117" stroke="#303b4d"/><rect width="600" height="740" rx="20" fill="url(#grid)"/><rect x="32" y="28" width="45" height="36" rx="7" fill="#d2ff5a"/><text x="54" y="54" text-anchor="middle" font-size="25" font-weight="800" fill="#10151c">Z.</text><text x="95" y="53" class="mono white" font-size="19">ZIAD / ENGINEERING</text><path d="M32 88H568" stroke="#303b4d"/><text x="32" y="134" class="mono lime" font-size="17" letter-spacing="1">THE WORK YOU DON'T SEE.</text><text x="28" y="220" class="white" font-size="79" font-weight="900" letter-spacing="-3">BEHIND</text><text x="28" y="299" class="white" font-size="65" font-weight="900" letter-spacing="-3">THE REQUEST.</text><path d="M32 334H92" stroke="#d2ff5a" stroke-width="4"/><text x="32" y="386" class="white" font-size="37" font-weight="700">Ziad Elmaghraby</text><text x="32" y="426" class="mono muted" font-size="21">Software Engineer · Backend .NET</text><text x="32" y="465" class="muted" font-size="21">Curiosity in. Thoughtful code out.</text><text x="32" y="522" class="mono muted" font-size="15">REQUEST LIFECYCLE / CONCEPT</text><path d="M140 585H464" stroke="#d2ff5a" stroke-width="3" class="flow"/><rect x="30" y="547" width="152" height="76" rx="12" fill="#141c28" stroke="#38455a"/><rect x="221" y="547" width="158" height="76" rx="12" fill="#201a37" stroke="#a184f6"/><rect x="418" y="547" width="152" height="76" rx="12" fill="#141c28" stroke="#38455a"/><text x="106" y="592" text-anchor="middle" class="mono white" font-size="19">REQUEST</text><text x="300" y="592" text-anchor="middle" fill="#ba9aff" class="mono" font-size="21">C# / .NET</text><text x="494" y="592" text-anchor="middle" class="mono white" font-size="19">RESPONSE</text><path d="M32 655H568" stroke="#303b4d"/><text x="32" y="700" class="mono lime" font-size="18">EXPLORE THE SOURCE ↓</text></svg>
