<svg xmlns="http://www.w3.org/2000/svg" width="450" height="300" viewBox="0 0 450 300" role="img" aria-labelledby="t"><title id="t">CALCULATOR — C# / .NET. Small surface. Logic underneath.</title><style>
text{font-family:Arial,Helvetica,sans-serif} .mono{font-family:Consolas,'Courier New',monospace}
.muted{fill:#8795aa} .white{fill:#f3f4ea} .lime{fill:#d2ff5a}
@keyframes drift{from{stroke-dashoffset:0}to{stroke-dashoffset:-96}}
@keyframes pulse{0%,100%{opacity:.35}50%{opacity:1}}
.flow{stroke-dasharray:7 17;animation:drift 6s linear infinite}
.pulse{animation:pulse 3s ease-in-out infinite}
@media(prefers-reduced-motion:reduce){.flow,.pulse{animation:none}}
</style><rect x="1" y="1" width="448" height="298" rx="16" fill="#111722" stroke="#303b4d"/><text x="26" y="39" class="mono" fill="#d2ff5a" font-size="13">SOURCE FILE / 01</text><rect x="308" y="46" width="99" height="125" rx="13" fill="#111722" stroke="#d2ff5a"/><rect x="322" y="62" width="70" height="26" rx="4" fill="#d2ff5a"/><text x="384" y="82" text-anchor="end" class="mono" font-size="18" fill="#111722">42</text><g fill="#33402b"><rect x="323" y="102" width="18" height="13" rx="3"/><rect x="348" y="102" width="18" height="13" rx="3"/><rect x="373" y="102" width="18" height="13" rx="3"/><rect x="323" y="122" width="18" height="13" rx="3"/><rect x="348" y="122" width="18" height="13" rx="3"/><rect x="373" y="122" width="18" height="13" rx="3"/><rect x="323" y="142" width="18" height="13" rx="3"/><rect x="348" y="142" width="18" height="13" rx="3"/><rect x="373" y="142" width="18" height="13" rx="3"/></g><text x="26" y="99" class="white" font-size="24" font-weight="800">CALCULATOR</text><text x="26" y="131" class="mono" fill="#d2ff5a" font-size="15">C# / .NET</text><text x="26" y="182" class="muted" font-size="17">Small surface.</text><text x="26" y="207" class="muted" font-size="17">Logic underneath.</text><path d="M26 237H424" stroke="#303b4d"/><text x="26" y="273" class="mono white" font-size="13">OPEN REPOSITORY</text><text x="420" y="273" text-anchor="end" fill="#d2ff5a" font-size="24">↗</text></svg>
